<svg xmlns="http://www.w3.org/2000/svg" width="551" height="551"><style>.shp0{fill:#e20000}</style><g id="Layer"><g id="Layer"><path id="Layer" class="shp0" d="M501.61 491.78c12.38 0 23.11-4.09 32.23-12.16L377.79 323.57c-3.74 2.68-7.37 5.29-10.8 7.76-11.68 8.61-21.15 15.32-28.43 20.13-7.28 4.83-16.96 9.74-29.05 14.76s-23.36 7.53-33.81 7.53h-.61c-10.45 0-21.72-2.51-33.81-7.53-12.1-5.02-21.78-9.93-29.05-14.76-7.28-4.81-16.75-11.52-28.43-20.13-3.26-2.38-6.87-5-10.77-7.81L16.95 479.62c9.12 8.07 19.85 12.16 32.23 12.16h452.43zM31.05 225.3C19.37 217.51 9.02 208.6 0 198.56v237.42l137.54-137.54c-27.51-19.21-62.97-43.56-106.49-73.14zm489.01 0c-41.87 28.33-77.45 52.73-106.75 73.19l137.48 137.5V198.56c-8.81 9.84-19.05 18.75-30.73 26.74z"/><path id="Layer" class="shp0" d="M501.61 59.01H49.18c-15.78 0-27.92 5.33-36.42 15.98C4.25 85.65.01 98.97.01 114.95c0 12.91 5.63 26.89 16.9 41.96 11.27 15.06 23.25 26.89 35.96 35.49 6.96 4.93 27.97 19.53 63.01 43.81 18.92 13.1 35.37 24.53 49.51 34.39 12.05 8.4 22.44 15.67 31.02 21.7.98.69 2.53 1.8 4.59 3.27 2.21 1.59 5.02 3.61 8.47 6.11 6.66 4.81 12.2 8.71 16.6 11.68 4.4 2.98 9.73 6.3 15.99 9.99 6.25 3.68 12.14 6.45 17.67 8.3 5.54 1.84 10.66 2.76 15.37 2.76h.61c4.71 0 9.84-.92 15.37-2.76 5.53-1.85 11.42-4.61 17.67-8.3 6.25-3.69 11.57-7.02 15.99-9.99 4.4-2.97 9.94-6.87 16.6-11.68 3.45-2.5 6.25-4.52 8.47-6.1 2.05-1.48 3.6-2.58 4.59-3.28 6.69-4.65 17.1-11.89 31.11-21.61 25.48-17.71 63.01-43.77 112.74-78.29 14.96-10.44 27.45-23.05 37.49-37.8 10.03-14.75 15.06-30.22 15.06-46.41 0-13.52-4.88-25.09-14.6-34.73-9.74-9.63-21.27-14.45-34.59-14.45z"/></g></g></svg>