<svg xmlns="http://www.w3.org/2000/svg" width="456" height="456"><style/><path id="Layer" fill-rule="evenodd" d="M455.73 0v455.73H0V0h455.73zm-75.5 152.37c0-42.39-34.48-76.87-76.87-76.87H152.37c-42.39 0-76.87 34.48-76.87 76.87v150.99c0 42.39 34.48 76.87 76.87 76.87h150.99c42.39 0 76.87-34.48 76.87-76.87V152.37zm-33.16 0v150.99c0 24.1-19.61 43.71-43.71 43.71H152.37c-24.1 0-43.71-19.61-43.71-43.71V152.37c0-24.1 19.61-43.71 43.71-43.71h150.99c24.1 0 43.71 19.61 43.71 43.71zm-40.72 75.49c0-43.27-35.21-78.48-78.49-78.48-43.27 0-78.48 35.21-78.48 78.48 0 43.28 35.21 78.49 78.48 78.49 43.28 0 78.49-35.21 78.49-78.49zm21.09-80.82c0-10.24-8.33-18.57-18.57-18.57s-18.57 8.33-18.57 18.57 8.33 18.57 18.57 18.57 18.57-8.33 18.57-18.57zm-54.26 80.82c0 24.99-20.33 45.33-45.32 45.33-24.98 0-45.32-20.34-45.32-45.33 0-24.98 20.34-45.31 45.32-45.31 24.99 0 45.32 20.33 45.32 45.31z" fill="#e20000"/></svg>