<svg xmlns="http://www.w3.org/2000/svg" width="439" height="439"><style/><g id="Layer" fill="#e20000"><path id="Layer" fill-rule="evenodd" d="M438.53 82.22v274.09c0 22.65-8.04 42.02-24.12 58.1-16.08 16.08-35.45 24.13-58.1 24.13H82.23c-22.65 0-42.02-8.05-58.1-24.13C8.04 398.33 0 378.96 0 356.31V82.22c0-22.64 8.04-42.01 24.13-58.1C40.21 8.04 59.58 0 82.23 0h274.08c22.65 0 42.02 8.04 58.1 24.12 16.08 16.08 24.12 35.46 24.12 58.1zm-73.07 221.85c0-2.09-.19-3.62-.57-4.57-.57-1.52-4.24-4.33-10.99-8.42-6.76-4.09-15.19-8.8-25.27-14.13l-15.13-8.27c-.95-.58-2.76-1.82-5.43-3.73-2.66-1.9-5.03-3.33-7.13-4.28-2.1-.95-4.1-1.42-6-1.42-3.43 0-7.9 3.09-13.42 9.27a980.579 980.579 0 0 0-16.27 18.71c-5.34 6.28-9.53 9.41-12.56 9.41-1.34 0-2.91-.33-4.72-1-1.81-.66-3.28-1.28-4.43-1.85-1.14-.57-2.76-1.47-4.85-2.7-2.1-1.24-3.44-2.05-4-2.43-18.85-10.47-35.07-22.51-48.69-36.12-13.6-13.61-25.64-29.84-36.11-48.68-.38-.57-1.19-1.91-2.43-4-1.23-2.1-2.14-3.72-2.71-4.86-.57-1.14-1.19-2.61-1.85-4.42-.67-1.81-1-3.38-1-4.71 0-2.48 1.95-5.67 5.85-9.57 3.9-3.9 8.18-7.56 12.85-10.99 4.66-3.43 8.94-7.19 12.85-11.28 3.9-4.09 5.85-7.56 5.85-10.42 0-1.9-.48-3.9-1.43-6-.95-2.09-2.38-4.47-4.28-7.13-1.9-2.67-3.14-4.47-3.71-5.43-.57-1.14-2-3.86-4.28-8.13-2.29-4.29-4.67-8.62-7.14-13-2.47-4.37-5-8.89-7.57-13.56-2.57-4.66-4.94-8.51-7.13-11.56-2.19-3.05-3.76-4.76-4.72-5.14-.95-.38-2.47-.57-4.56-.57-9.14 0-18.75 2.09-28.84 6.28-8.76 4-16.37 12.99-22.84 26.98-6.47 13.99-9.71 26.41-9.71 37.26 0 3.04.24 6.28.71 9.71.48 3.43.95 6.33 1.43 8.7.48 2.38 1.33 5.52 2.57 9.43 1.24 3.89 2.19 6.7 2.85 8.42.67 1.71 1.86 4.85 3.57 9.41 1.72 4.57 2.76 7.43 3.14 8.57 11.42 31.21 32.03 61.71 61.81 91.5 29.79 29.79 60.3 50.39 91.51 61.82 1.14.37 3.99 1.42 8.56 3.13 4.57 1.72 7.7 2.91 9.42 3.57 1.71.66 4.52 1.62 8.43 2.85 3.89 1.24 7.04 2.1 9.42 2.57 2.37.48 5.27.95 8.7 1.43 3.42.48 6.66.71 9.71.71 10.85 0 23.27-3.23 37.26-9.71 13.99-6.47 22.98-14.09 26.98-22.85 4.19-10.06 6.29-19.67 6.3-28.8z"/></g></svg>