<svg xmlns="http://www.w3.org/2000/svg" width="243" height="243"><style/><path id="Layer" fill-rule="evenodd" d="M242.67 0v242.67H0V0h242.67zm-66.42 125.43l22.48-35.75c1.85-2.94-.26-6.76-3.73-6.76h-25.42c-3.08 0-5.96 1.55-7.67 4.12l-21.65 32.63c-1.08 1.63-3.63.86-3.63-1.1V88.09c0-4.61-3.74-8.35-8.35-8.35H98.2c-1.05 0-1.62 1.24-.93 2.04l2.69 3.09c2.25 2.58 3.49 5.9 3.49 9.33v26.21c0 1.53-1.67 2.5-2.98 1.72-3.54-2.1-9.79-7.02-16.3-17.95-4.58-7.7-7.26-12.91-8.82-16.28a9.304 9.304 0 0 0-8.44-5.38H47.88c-2.99 0-5.13 2.91-4.24 5.77 0 0 7.15 22.85 23.24 44.11 16.1 21.26 30.4 34.97 48.68 34.97s19.48-5.17 19.48-11.33.79-8.54 3.97-8.54 6.56 2.38 14.51 9.33l7.04 6.55c2.75 2.56 6.37 3.99 10.13 3.99h23.78c4.11 0 6.3-4.83 3.61-7.93l-21.07-24.22a8.216 8.216 0 0 1-.76-9.79z" fill="#e20000"/></svg>