<?xml version="1.0" encoding="UTF-8"?>
<!DOCTYPE svg PUBLIC "-//W3C//DTD SVG 1.1//EN" "http://www.w3.org/Graphics/SVG/1.1/DTD/svg11.dtd">
<!-- Creator: CorelDRAW X8 -->
<svg xmlns="http://www.w3.org/2000/svg" xml:space="preserve" width="147.284mm" height="119.04mm" version="1.1" style="shape-rendering:geometricPrecision; text-rendering:geometricPrecision; image-rendering:optimizeQuality; fill-rule:evenodd; clip-rule:evenodd"
viewBox="0 0 14728 11904"
 xmlns:xlink="http://www.w3.org/1999/xlink">
 <defs>
  <style type="text/css">
   <![CDATA[
    .fil0 {fill:white;fill-rule:nonzero}
   ]]>
  </style>
 </defs>
 <g id="Слой_x0020_1">
  <metadata id="CorelCorpID_0Corel-Layer"/>
  <g id="_1403538157840">
   <path class="fil0" d="M14728 7680c0,104 -33,189 -101,257 -67,67 -153,101 -256,101l-596 0c-104,0 -189,-34 -257,-101 -67,-68 -101,-153 -101,-257l0 -685c0,-59 30,-89 90,-89l178 0c60,0 90,30 90,89l0 596c0,60 30,89 89,89l417 0c60,0 90,-29 90,-89l0 -1103c0,-91 -12,-157 -36,-196 -24,-40 -52,-74 -83,-102l-596 -536c-60,-56 -115,-121 -164,-197 -50,-75 -75,-188 -75,-340l0 -894c0,-103 34,-188 101,-256 68,-67 153,-101 257,-101l596 0c103,0 189,34 256,101 68,68 101,153 101,256l0 656c0,60 -29,90 -89,90l-179 0c-59,0 -89,-30 -89,-90l0 -566c0,-60 -30,-90 -90,-90l-417 0c-59,0 -89,30 -89,90l0 745c0,91 12,157 36,197 23,39 51,73 83,101l596 536c60,56 114,122 164,197 50,76 74,189 74,340l0 1251z"/>
   <path class="fil0" d="M10933 7591c0,60 30,89 89,89l417 0c60,0 90,-29 90,-89l0 -3636c0,-59 30,-89 89,-89l179 0c60,0 89,30 89,89l0 3725c0,104 -33,189 -101,257 -67,67 -153,101 -256,101l-596 0c-104,0 -189,-34 -257,-101 -67,-68 -101,-153 -101,-257l0 -3725c0,-59 30,-89 90,-89l178 0c60,0 90,30 90,89l0 3636z"/>
   <path class="fil0" d="M8985 7949c0,59 -30,89 -90,89l-178 0c-60,0 -90,-30 -90,-89 0,-1741 0,-2253 0,-3994 0,-59 30,-89 90,-89l178 0c60,0 90,30 90,89 0,1741 0,2253 0,3994z"/>
   <path class="fil0" d="M5726 3955c0,-59 30,-89 89,-89l864 0c104,0 189,34 257,101 67,68 101,153 101,256l0 3457c0,104 -34,189 -101,257 -68,67 -153,101 -257,101l-864 0c-59,0 -89,-30 -89,-89l0 -3994zm864 3725c60,0 89,-29 89,-89l0 -3278c0,-60 -29,-90 -89,-90l-507 0 0 3457 507 0z"/>
   <path class="fil0" d="M3718 3866c52,0 82,30 90,89l506 3994c0,59 -30,89 -89,89l-179 0c-56,0 -85,-30 -89,-89l-90 -686 -655 0 -90 686c-8,59 -38,89 -89,89l-179 0c-60,0 -89,-30 -89,-89l506 -3994c4,-59 34,-89 90,-89l357 0zm119 3040l-298 -2414 -298 2414 596 0z"/>
   <path class="fil0" d="M0 3955c0,-59 30,-89 89,-89l865 0c103,0 188,34 256,101 68,68 101,153 101,256l0 2146c0,44 -8,84 -23,119 -16,36 -34,64 -54,84 -20,28 -44,50 -72,65l358 1312c16,59 -4,89 -60,89l-178 0c-68,0 -108,-30 -120,-89l-328 -1222 -476 0 0 1222c0,59 -30,89 -90,89l-179 0c-59,0 -89,-30 -89,-89l0 -3994zm358 268l0 2146 506 0c60,0 90,-30 90,-89l0 -1967c0,-60 -30,-90 -90,-90l-506 0z"/>
   <path class="fil0" d="M8985 3656l0 -3567c0,-59 -30,-89 -90,-89l-178 0c-60,0 -90,30 -90,89l0 3567c0,-59 30,-89 90,-89l178 0c60,0 90,30 90,89z"/>
   <path class="fil0" d="M8985 8248l0 3567c0,59 -30,89 -90,89l-178 0c-60,0 -90,-30 -90,-89l0 -3567c0,59 30,89 90,89l178 0c60,0 90,-30 90,-89z"/>
   <path class="fil0" d="M4951 1075c-27,0 -46,-6 -58,-19 -12,-12 -19,-31 -19,-57l0 -127c0,-27 7,-48 19,-60 13,-13 33,-19 62,-19l144 0 0 56 -128 0c-16,0 -25,8 -25,24l0 128c0,6 2,11 6,14 4,4 8,6 15,6 5,0 10,0 17,0 7,0 14,0 21,0 7,0 14,0 22,0 7,0 14,-2 21,-4 17,0 33,0 51,0l0 53c-18,3 -36,5 -54,5 -15,0 -31,0 -48,0 -17,0 -32,0 -46,0zm429 -2l-72 0 0 -224 -84 0 0 -56 240 0 0 56 -84 0 0 224zm193 -280l80 0 72 142 60 -142 80 0 -102 220c-4,11 -9,20 -15,27 -5,8 -11,15 -18,20 -7,6 -15,10 -24,13 -9,3 -19,4 -31,4 -6,0 -11,0 -16,0 -5,-1 -10,-1 -14,-2 -5,0 -10,-1 -14,-2l0 -54 36 0c4,0 7,0 10,-2 3,-2 5,-4 6,-7 1,-2 2,-5 2,-8 0,-3 -1,-6 -2,-9l-110 -200zm433 0l211 0 0 224 30 0 0 109 -68 0 -4 -53 -157 0 -4 53 -68 0 0 -109 26 0c5,-4 8,-10 12,-16 2,-5 5,-12 8,-19 2,-7 4,-16 4,-25l10 -164zm139 224l0 -168 -75 0 -6 100c0,10 -2,20 -4,28 -2,8 -5,15 -8,22 -3,7 -6,13 -10,18l103 0zm491 56l-72 0 0 -172 -96 172 -76 0 0 -280 72 0 0 172 96 -172 76 0 0 280zm401 0l-72 0 0 -92 -54 0 -50 92 -76 0 52 -96c-17,-4 -29,-12 -37,-24 -7,-12 -11,-30 -11,-52l0 -28c0,-28 6,-48 19,-61 13,-13 33,-19 61,-19l168 0 0 280zm-176 -172c0,16 8,24 24,24l80 0 0 -76 -80 0c-16,0 -24,8 -24,24l0 28zm-4122 826c-1,-3 -4,-6 -7,-8 -3,-3 -7,-4 -11,-4l-16 0 0 -54c4,-1 8,-1 12,-2 3,-1 7,-1 11,-2 5,0 9,0 13,0 15,0 26,3 35,10 8,7 16,17 22,28l40 76 28 0 0 -110 72 0 0 110 28 0 40 -76c6,-11 13,-21 22,-28 8,-7 20,-10 34,-10 4,0 9,0 13,0 4,1 8,1 12,2 4,1 7,1 11,2l0 54 -16 0c-4,0 -8,1 -11,4 -3,2 -5,5 -7,8l-38 72 78 142 -76 0 -62 -114 -28 0 0 114 -72 0 0 -114 -28 0 -62 114 -77 0 79 -142 -39 -72zm724 214l-222 0 0 -280 222 0 0 56 -150 0 0 54 118 0 0 56 -118 0 0 58 150 0 0 56zm390 0l-73 0 0 -114 -100 0 0 114 -72 0 0 -280 72 0 0 110 100 0 0 -110 73 0 0 280zm229 1c-26,0 -46,-6 -58,-18 -12,-12 -18,-31 -18,-57l0 -127c0,-28 6,-48 19,-60 12,-13 33,-19 61,-19l144 0 0 56 -128 0c-16,0 -24,8 -24,24l0 127c0,6 1,11 5,15 4,3 9,5 15,5 5,0 11,0 17,0 7,0 14,0 21,0 7,0 15,0 22,0 7,0 14,-1 21,-3 17,0 34,0 51,0l0 52c-18,4 -36,5 -53,5 -16,0 -32,0 -49,0 -17,0 -32,0 -46,0zm429 -1l-72 0 0 -224 -84 0 0 -56 240 0 0 56 -84 0 0 224zm225 -280l160 0c27,0 46,6 58,18 12,11 19,30 19,54 0,16 -4,29 -11,39 -7,10 -15,17 -26,21 6,1 12,4 18,7 6,4 11,9 16,15 4,5 8,13 10,21 3,8 5,18 5,29 0,26 -7,45 -19,58 -12,12 -31,18 -58,18l-172 0 0 -280zm176 192c0,-16 -8,-24 -24,-24l-80 0 0 56 80 0c16,0 24,-8 24,-24l0 -8zm-12 -112c0,-16 -8,-24 -24,-24l-68 0 0 56 68 0c16,0 24,-8 24,-24l0 -8zm456 200l-222 0 0 -280 222 0 0 56 -150 0 0 54 118 0 0 56 -118 0 0 58 150 0 0 56zm389 0l-72 0 0 -114 -100 0 0 114 -72 0 0 -280 72 0 0 110 100 0 0 -110 72 0 0 280zm406 0l-73 0 0 -114 -100 0 0 114 -72 0 0 -280 72 0 0 110 100 0 0 -110 73 0 0 280zm233 -184l92 0c28,0 48,6 61,19 13,13 19,33 19,61l0 24c0,28 -6,48 -19,61 -13,13 -33,19 -61,19l-164 0 0 -280 72 0 0 96zm276 184l-72 0 0 -280 72 0 0 280zm-176 -104c0,-16 -8,-24 -24,-24l-76 0 0 72 76 0c16,0 24,-8 24,-24l0 -24zm499 -176l80 0 -90 140 92 140 -80 0 -56 -88 -56 88 -80 0 92 -140 -90 -140 80 0 54 88 54 -88zm-3911 1148l-72 0 0 -114 -100 0 0 114 -72 0 0 -281 72 0 0 110 100 0 0 -110 72 0 0 281zm211 0l-78 0 106 -281 80 0 106 281 -78 0 -18 -50 -100 0 -18 50zm36 -102l64 0 -32 -95 -32 95zm556 102l-72 0 0 -225 -101 0 0 225 -72 0 0 -281 245 0 0 281zm161 -281l168 0c28,0 48,7 61,19 13,13 19,33 19,61l0 40c0,29 -6,49 -19,62 -13,12 -33,19 -61,19l-96 0 0 80 -72 0 0 -281zm176 80c0,-16 -8,-24 -24,-24l-80 0 0 89 80 0c16,0 24,-8 24,-25l0 -40zm247 201l-78 0 106 -281 80 0 106 281 -78 0 -18 -50 -100 0 -18 50zm36 -102l64 0 -32 -95 -32 95zm311 -179l161 0c26,0 45,6 57,18 12,12 19,30 19,54 0,16 -4,29 -11,39 -7,10 -15,17 -25,22 5,1 11,4 17,7 6,4 11,8 16,14 4,6 8,13 10,22 3,8 5,18 5,29 0,26 -6,45 -19,57 -12,13 -31,19 -57,19l-173 0 0 -281zm177 193c0,-16 -8,-24 -24,-24l-81 0 0 56 81 0c16,0 24,-8 24,-24l0 -8zm-12 -113c0,-16 -8,-24 -24,-24l-69 0 0 56 69 0c16,0 24,-8 24,-24l0 -8zm317 143c-2,19 -8,34 -19,45 -11,11 -25,17 -43,17 -5,0 -10,0 -15,-1 -5,0 -10,-1 -14,-1 -5,-1 -9,-1 -13,-2l0 -54 18 0c5,0 9,-2 12,-6 4,-3 5,-7 6,-12l12 -209 222 0 0 281 -72 0 0 -225 -84 0 -10 167zm549 58l-222 0 0 -281 222 0 0 56 -150 0 0 54 118 0 0 57 -118 0 0 58 150 0 0 56zm390 0l-72 0 0 -114 -101 0 0 114 -72 0 0 -281 72 0 0 110 101 0 0 -110 72 0 0 281zm405 0l-72 0 0 -173 -96 173 -76 0 0 -281 72 0 0 173 96 -173 76 0 0 281zm333 0l0 -173 -96 173 -76 0 0 -281 72 0 0 173 96 -173 76 0 0 281 -72 0zm-72 -301c-35,0 -52,-17 -52,-52l0 -12 52 0 0 10c0,4 2,8 4,10 3,3 6,4 10,4l12 0c4,0 8,-1 10,-4 3,-2 4,-6 4,-10l0 -10 52 0 0 12c0,35 -17,52 -52,52l-40 0z"/>
   <path class="fil0" d="M10575 9112l169 0c28,0 48,6 61,19 12,12 19,33 19,61l0 40c0,28 -7,48 -19,61 -13,13 -33,19 -61,19l-97 0 0 80 -72 0 0 -280zm177 80c0,-16 -8,-24 -24,-24l-81 0 0 88 81 0c16,0 24,-8 24,-24l0 -40zm401 -4c0,-16 -8,-24 -24,-24l-68 0c-16,0 -24,8 -24,24l0 128c0,16 8,24 24,24l68 0c16,0 24,-8 24,-24l0 -128zm72 128c0,28 -6,48 -19,61 -13,13 -33,19 -61,19l-100 0c-28,0 -49,-6 -61,-19 -13,-13 -19,-33 -19,-61l0 -128c0,-28 6,-49 19,-61 12,-13 33,-19 61,-19l100 0c28,0 48,6 61,19 13,12 19,33 19,61l0 128zm225 20l146 0 0 56 -218 0 0 -280 72 0 0 224zm510 56l-223 0 0 -280 223 0 0 56 -151 0 0 54 119 0 0 56 -119 0 0 58 151 0 0 56zm508 -280c30,0 53,7 69,23 15,16 23,39 23,69l0 96c0,30 -8,53 -23,69 -16,15 -39,23 -69,23l-156 0 0 -280 156 0zm20 92c0,-24 -12,-36 -36,-36l-68 0 0 168 68 0c24,0 36,-12 36,-36l0 -96zm263 188l-78 0 106 -280 80 0 107 280 -79 0 -18 -50 -100 0 -18 50zm36 -102l64 0 -32 -94 -32 94zm556 102l-76 0 -96 -168 0 168 -73 0 0 -280 77 0 96 168 0 -168 72 0 0 280zm229 1c-26,0 -45,-6 -58,-18 -12,-12 -18,-31 -18,-57l0 -127c0,-28 6,-48 19,-61 12,-12 33,-18 61,-18l144 0 0 56 -128 0c-16,0 -24,8 -24,24l0 127c0,6 2,11 5,15 4,3 9,5 15,5 5,0 11,0 18,0 6,0 13,0 20,0 8,0 15,0 22,0 8,0 15,-1 22,-3 16,0 33,0 50,0l0 52c-18,3 -36,5 -53,5 -15,0 -31,0 -48,0 -17,0 -33,0 -47,0zm515 -1l-222 0 0 -280 222 0 0 56 -150 0 0 54 118 0 0 56 -118 0 0 58 150 0 0 56zm-3452 675c0,16 8,24 24,24l73 0c26,0 45,6 57,18 13,13 19,32 19,57l0 20c0,26 -6,45 -19,57 -12,12 -31,18 -57,18 -8,0 -17,0 -26,0 -9,0 -18,0 -27,0 -9,0 -19,0 -28,0 -9,0 -18,0 -26,0 -19,0 -39,-2 -58,-5l0 -52c19,0 38,0 57,0 16,0 32,0 49,0 17,0 31,0 43,0 6,0 11,-1 14,-5 4,-3 6,-8 6,-14l0 -34 -93 0c-28,0 -48,-6 -61,-19 -12,-12 -19,-33 -19,-61l0 -12c0,-28 7,-48 19,-61 13,-12 33,-19 61,-19l141 0 0 56 -125 0c-16,0 -24,8 -24,24l0 8zm438 193l-72 0 0 -225 -84 0 0 -56 240 0 0 56 -84 0 0 225zm225 -281l168 0c28,0 49,7 61,19 13,13 19,33 19,61l0 36c0,23 -3,40 -11,52 -7,12 -19,20 -35,24l50 89 -78 0 -46 -85 -56 0 0 85 -72 0 0 -281zm176 80c0,-16 -8,-24 -24,-24l-80 0 0 84 80 0c16,0 24,-8 24,-24l0 -36zm448 201l-223 0 0 -281 223 0 0 56 -151 0 0 54 119 0 0 56 -119 0 0 59 151 0 0 56zm281 0l-72 0 0 -225 -84 0 0 -56 240 0 0 56 -84 0 0 225zm293 1c-26,0 -45,-6 -58,-18 -12,-13 -18,-32 -18,-58l0 -126c0,-28 6,-48 19,-61 13,-12 33,-19 61,-19l144 0 0 56 -128 0c-16,0 -24,8 -24,24l0 128c0,6 2,11 5,14 4,4 9,6 15,6 5,0 11,0 18,0 6,0 13,0 20,0 8,0 15,0 22,0 8,0 15,-1 22,-4 16,0 33,0 50,0l0 53c-18,3 -35,5 -53,5 -15,0 -31,0 -48,0 -17,0 -33,0 -47,0zm538 -1l-73 0 0 -115 -100 0 0 115 -72 0 0 -281 72 0 0 110 100 0 0 -110 73 0 0 281zm293 0l-144 0 0 -56 36 0 0 -169 -36 0 0 -56 144 0 0 56 -36 0 0 169 36 0 0 56zm393 0l-76 0 -96 -169 0 169 -72 0 0 -281 76 0 96 168 0 -168 72 0 0 281zm229 2c-26,0 -45,-6 -57,-18 -13,-12 -19,-31 -19,-57l0 -128c0,-28 6,-48 19,-61 13,-12 33,-19 61,-19l144 0 0 56 -128 0c-16,0 -24,8 -24,24l0 128c0,6 2,11 6,14 3,4 8,6 14,6 8,0 17,0 27,0 10,0 19,0 27,0 10,0 20,0 30,0l0 -60 -52 0 0 -48 124 0 0 155c-20,3 -40,4 -60,4 -17,3 -36,4 -56,4 -20,0 -39,0 -56,0zm-3151 865l-223 0 0 -280 223 0 0 56 -151 0 0 54 119 0 0 56 -119 0 0 58 151 0 0 56zm307 -280l80 0 -90 140 92 140 -80 0 -56 -88 -56 88 -80 0 92 -140 -90 -140 79 0 55 88 54 -88zm387 76c0,-16 -8,-24 -24,-24l-68 0c-16,0 -24,8 -24,24l0 128c0,16 8,24 24,24l68 0c16,0 24,-8 24,-24l0 -128zm72 128c0,28 -6,49 -19,61 -12,13 -33,19 -61,19l-100 0c-28,0 -48,-6 -61,-19 -13,-12 -19,-33 -19,-61l0 -128c0,-28 6,-48 19,-61 13,-13 33,-19 61,-19l100 0c28,0 49,6 61,19 13,13 19,33 19,61l0 128zm290 76l-73 0 0 -224 -84 0 0 -56 241 0 0 56 -84 0 0 224zm357 0l-144 0 0 -56 36 0 0 -168 -36 0 0 -56 144 0 0 56 -36 0 0 168 36 0 0 56zm217 1c-26,0 -45,-6 -58,-18 -12,-12 -18,-31 -18,-57l0 -127c0,-28 6,-48 19,-60 13,-13 33,-19 61,-19l144 0 0 56 -128 0c-16,0 -24,8 -24,24l0 127c0,7 2,11 5,15 4,4 9,5 15,5 5,0 11,0 18,0 6,0 13,0 20,0 8,0 15,0 22,0 8,0 15,-1 22,-3 16,0 33,0 50,0l0 52c-18,4 -36,5 -53,5 -15,0 -31,0 -48,0 -17,0 -33,0 -47,0z"/>
  </g>
 </g>
</svg>
