<?xml version="1.0" encoding="UTF-8"?>
<!DOCTYPE svg PUBLIC "-//W3C//DTD SVG 1.1//EN" "http://www.w3.org/Graphics/SVG/1.1/DTD/svg11.dtd">
<!-- Creator: CorelDRAW X8 -->
<svg xmlns="http://www.w3.org/2000/svg" xml:space="preserve" width="147.284mm" height="41.7238mm" version="1.1" style="shape-rendering:geometricPrecision; text-rendering:geometricPrecision; image-rendering:optimizeQuality; fill-rule:evenodd; clip-rule:evenodd"
viewBox="0 0 14728 4172"
 xmlns:xlink="http://www.w3.org/1999/xlink">
 <defs>
  <style type="text/css">
   <![CDATA[
    .fil0 {fill:black;fill-rule:nonzero}
   ]]>
  </style>
 </defs>
 <g id="Слой_x0020_1">
  <metadata id="CorelCorpID_0Corel-Layer"/>
  <g id="_2200399538992">
   <path class="fil0" d="M14728 3815c0,103 -33,188 -101,256 -67,68 -153,101 -256,101l-596 0c-104,0 -189,-33 -257,-101 -67,-68 -101,-153 -101,-256l0 -686c0,-59 30,-89 90,-89l178 0c60,0 90,30 90,89l0 596c0,60 30,90 89,90l417 0c60,0 90,-30 90,-90l0 -1102c0,-92 -12,-157 -36,-197 -24,-40 -52,-74 -83,-102l-596 -536c-60,-56 -115,-121 -164,-197 -50,-75 -75,-188 -75,-339l0 -894c0,-104 34,-189 101,-257 68,-67 153,-101 257,-101l596 0c103,0 189,34 256,101 68,68 101,153 101,257l0 655c0,60 -29,90 -89,90l-179 0c-59,0 -89,-30 -89,-90l0 -566c0,-60 -30,-89 -90,-89l-417 0c-59,0 -89,29 -89,89l0 745c0,91 12,157 35,197 24,39 52,73 84,101l596 536c60,56 114,122 164,197 50,76 74,189 74,340l0 1252z"/>
   <path class="fil0" d="M10933 3725c0,60 30,90 89,90l417 0c60,0 90,-30 90,-90l0 -3636c0,-59 30,-89 89,-89l179 0c60,0 89,30 89,89l0 3726c0,103 -33,188 -101,256 -67,68 -153,101 -256,101l-596 0c-104,0 -189,-33 -257,-101 -67,-68 -101,-153 -101,-256l0 -3726c0,-59 30,-89 90,-89l178 0c60,0 90,30 90,89l0 3636z"/>
   <path class="fil0" d="M8985 4083c0,59 -30,89 -90,89l-178 0c-60,0 -90,-29 -90,-89 0,-1741 0,-2253 0,-3994 0,-59 30,-89 90,-89l178 0c60,0 90,30 90,89 0,1741 0,2253 0,3994z"/>
   <path class="fil0" d="M5726 89c0,-59 29,-89 89,-89l864 0c104,0 189,34 257,101 67,68 101,153 101,257l0 3457c0,103 -34,188 -101,256 -68,68 -153,101 -257,101l-864 0c-60,0 -89,-29 -89,-89l0 -3994zm864 3726c60,0 89,-30 89,-90l0 -3278c0,-60 -29,-89 -89,-89l-507 0 0 3457 507 0z"/>
   <path class="fil0" d="M3718 0c52,0 82,30 90,89l506 3994c0,60 -30,89 -89,89l-179 0c-56,0 -85,-29 -89,-89l-90 -685 -655 0 -90 685c-8,60 -38,89 -89,89l-179 0c-60,0 -89,-29 -89,-89l506 -3994c4,-59 34,-89 90,-89l357 0zm119 3040l-298 -2414 -298 2414 596 0z"/>
   <path class="fil0" d="M0 89c0,-59 30,-89 89,-89l865 0c103,0 188,34 256,101 68,68 101,153 101,257l0 2145c0,44 -8,84 -23,120 -16,35 -34,63 -54,83 -20,28 -44,50 -72,66l358 1311c16,60 -4,89 -60,89l-178 0c-68,0 -108,-29 -120,-89l-328 -1222 -476 0 0 1222c0,60 -30,89 -90,89l-179 0c-59,0 -89,-29 -89,-89l0 -3994zm358 269l0 2145 506 0c60,0 90,-29 90,-89l0 -1967c0,-60 -30,-89 -90,-89l-506 0z"/>
  </g>
 </g>
</svg>
